<svg xmlns="http://www.w3.org/2000/svg" viewBox="0 0 18 18" width="100%" height="100%">
    <circle cx="9" cy="9" r="9" fill="#cbc5d0"/>
    <path d="M9 3.5 C7 3.5, 5.5 5, 5.5 7 C5.5 9, 6.5 10, 6.5 11.5 L8 11.5 L8 12.5 L10 12.5 L10 11.5 L11.5 11.5 C11.5 10, 12.5 9, 12.5 7 C12.5 5, 11 3.5, 9 3.5 Z M7.3 6.5 C7.8 6.5, 8.1 7, 8.1 7.5 C8.1 8, 7.8 8.5, 7.3 8.5 C6.8 8.5, 6.5 8, 6.5 7.5 C6.5 7, 6.8 6.5, 7.3 6.5 Z M10.7 6.5 C11.2 6.5, 11.5 7, 11.5 7.5 C11.5 8, 11.2 8.5, 10.7 8.5 C10.2 8.5, 9.9 8, 9.9 7.5 C9.9 7, 10.2 6.5, 10.7 6.5 Z" fill="#1a121d"/>
</svg>
